<svg id="svg" xmlns="http://www.w3.org/2000/svg" width="400" height="400"><style>@media (prefers-color-scheme:dark){path{fill:#b0b0b0}}</style><path id="path0" d="M230.325 18.141 182.671 31.59l-48.74-8.089c-26.808-4.449-49.027-7.803-49.376-7.454-.35.349-2.334 10.673-4.411 22.942-2.076 12.269-3.9 22.424-4.053 22.566-.153.142-13.275 3.946-29.16 8.452-15.884 4.507-29.318 8.631-29.852 9.166-.534.534 4.416 20.141 11.001 43.571 10.954 38.977 11.742 42.638 9.274 43.06-2.565.439-2.697 2.642-2.697 45.127v44.665h9.646l-6.197 37.184c-3.409 20.451-6.566 39.203-7.016 41.67l-.818 4.487 29.873 4.886c35.28 5.77 31.849 3.229 38.827 28.755 3.086 11.29 6.293 20.789 7.126 21.108.832.32 22.639-5.46 48.459-12.845l46.946-13.426 44.736 7.538c24.605 4.147 46.755 7.579 49.224 7.629l4.488.089 3.303-20.577c4.346-27.077 1.283-24.042 33.257-32.941 31.934-8.888 32.319-9.079 30.27-15.074-7.129-20.853-16.786-58.483-15.008-58.483 1.684 0 2.018-7.396 2.018-44.766v-44.765h-8.665c-5.982 0-8.656-.559-8.639-1.805.013-.993 3.85-24.549 8.525-52.347 4.675-27.797 8.076-50.936 7.557-51.418-.52-.482-14.105-3.016-30.189-5.631-34.063-5.539-30.448-2.872-37.183-27.427-2.94-10.722-5.767-20.226-6.282-21.12-.644-1.116-15.841 2.582-48.59 11.824m42.631 13.989c1.674 5.758 3.391 11.672 3.815 13.143.66 2.281.169 2.546-3.342 1.809-2.263-.475-16.053-2.786-30.645-5.136-29.419-4.737-30.287-5.015-22.352-7.155 3.058-.825 14.008-4.053 24.333-7.175 25.942-7.841 24.535-8.067 28.191 4.514m-56.56 18.349c66.203 11.055 120.739 20.471 121.193 20.925.454.454-2.624 21.938-6.839 47.743l-7.664 46.918-59.377-.011-59.377-.012-.159-9.037c-.201-11.441-5.183-22.45-14.132-31.229l-6.476-6.354 3.829-7.364c14.42-27.733-11.861-58.416-39.077-45.622-13.44 6.317-19.217 17.602-17.977 35.114.679 9.589.596 9.891-3.088 11.23-17.925 6.515-26.961 18.273-31.398 40.853l-2.443 12.432H71.973l.82-3.971c.451-2.184 5.417-31.913 11.035-66.065 9.844-59.834 10.904-65.736 11.795-65.677.223.015 54.571 9.072 120.773 20.127M73.646 77.343c0 .444-3.249 20.225-7.22 43.957-3.971 23.731-7.22 43.512-7.22 43.957 0 5.419-5.688-.613-7.749-8.217a1026.594 1026.594 0 0 0-4.562-16.246c-10.296-35.13-14.906-51.965-14.374-52.497 1.714-1.713 41.125-12.212 41.125-10.954m99.031 3.631c8.176 7.681 7.854 19.437-.864 31.471-12.19 16.828-26.358 10.461-28.467-12.794-1.687-18.605 16.846-30.407 29.331-18.677m65.003 14.538c-.524 3.276-.743 6.166-.488 6.422.763.762 71.982 12.48 72.508 11.93.266-.279.71-3.106.988-6.283l.503-5.776-31.047-5.269c-17.075-2.898-33.401-5.654-36.279-6.125-5.199-.851-5.239-.818-6.185 5.101m-98.115 30.88c2.929 7.634 19.119 11.327 28.558 6.515 11.366-5.794 27.636 15.805 23.074 30.631-.775 2.518-75.689 4.093-81.87 1.721-2.786-1.069.414-18.888 4.61-25.679 6.943-11.233 23.173-19.585 25.628-13.188m90.914 13.076c-1.235 3.22-1.091 10.708.207 10.738.596.013 16.663 2.574 35.706 5.689 19.043 3.116 34.856 5.433 35.14 5.149 3.15-3.15 1.702-12.076-2.084-12.85-3.868-.79-66.651-11.01-67.64-11.01-.249 0-.847 1.028-1.329 2.284m-97.869 45.189c3.744 2.374 1.719 38.143-2.407 42.53-6.782 7.21-19.825 5.662-23.685-2.811-2.566-5.631 1.509-7.537 5.543-2.592 8.653 10.606 14.964 1.994 14.994-20.46.023-17.904.648-19.777 5.555-16.667m37.952 1.89c3.086 1.735 5.611 4.03 5.611 5.1 0 3.099-3.909 3.759-7.474 1.262-5.966-4.179-18.518-1.901-18.518 3.36 0 2.27 5.275 5.759 13.16 8.705 9.327 3.485 12.43 6.371 13.706 12.752 2.549 12.746-20.564 19.126-32.867 9.072-5.369-4.387-1.549-7.24 5.313-3.968 10.385 4.953 20.265 2.359 19.21-5.042-.372-2.605-2.623-4.164-10.58-7.324-11.157-4.431-15.179-8.119-15.131-13.873.095-11.192 15.525-16.813 27.57-10.044m45.741-.403c16.53 8.487 15.131 36.992-2.177 44.367-16.433 7.002-31.705-5.364-30.475-24.677 1.173-18.422 16.785-27.836 32.652-19.69m39.293 16.101 12.274 17.972.722-18.051c.591-14.761 1.117-18.05 2.888-18.05 4.121 0 3.119 46.073-1.015 46.661-2.635.375-5.114-2.451-14.44-16.465l-11.26-16.918-.722 16.466c-.689 15.723-.868 16.486-3.971 16.926l-3.249.462v-23.085c0-22.978.469-25.224 5.054-24.209.794.175 6.968 8.406 13.719 18.291m-52.708-11.904c-16.62 3.228-14.498 34.93 2.337 34.93 9.649 0 13.548-4.917 13.548-17.087 0-13.598-5.564-19.847-15.885-17.843m-124.91 69.375v4.12l98.556 16.179c54.206 8.899 99.488 16.305 100.627 16.458 2.071.278 5.329-10.132 3.686-11.776-.433-.433-38.62-7.089-84.861-14.792l-84.073-14.006 97.834-.102c53.809-.056 97.847.363 97.863.932.098 3.537-17.996 109.566-18.867 110.555-.941 1.069-240.75-37.546-242.483-39.045-.631-.546 9.399-64.649 10.97-70.116.602-2.094 2.442-2.527 10.737-2.527h10.011v4.12m260.819 4.183c1.328 4.567 4.838 16.961 7.8 27.542l5.384 19.239-3.13 1.19c-7.988 3.037-37.017 10.554-37.786 9.784-.476-.475 1.573-15.533 4.552-33.461l5.416-32.597h15.348l2.416 8.303M71.639 297.527c-1.155 7.223-1.619 6.595 5.785 7.818 5.388.889 6.028.668 6.84-2.363 1.5-5.601 1.047-9.841-1.051-9.841-1.092 0-3.923-.388-6.291-.861-4.133-.827-4.345-.616-5.283 5.247m27.268 4.335c-1.191 7.052-1.389 6.79 6.012 7.973 5.879.94 10.867-7.157 6.734-10.931-4.933-4.504-11.752-2.921-12.746 2.958m27.559.892c-3.022 7.878-.054 11.971 8.724 12.028 3.134.02 6.202-9.501 3.761-11.671-2.537-2.256-11.656-2.517-12.485-.357m12.523 54.22c15.686 2.568 28.52 5.093 28.52 5.609 0 .517-10.884 3.975-24.188 7.683-13.303 3.709-25.288 7.074-26.632 7.479-2.418.729-2.763-.12-9.298-22.871-.948-3.298-1.66-3.345 31.598 2.1" style="fill:#2a2a2a"/></svg>