<svg id="svg" xmlns="http://www.w3.org/2000/svg" xmlns:xlink="http://www.w3.org/1999/xlink" width="400" height="400" viewBox="0, 0, 400,400">
    <style>
        path { fill: #2a2a2a; }
        @media (prefers-color-scheme: dark) {
        path { fill: #b0b0b0; }
        }
  </style>
    
    <path id="path0" d="M230.325 18.141 L 182.671 31.590 133.931 23.501 C 107.123 19.052,84.904 15.698,84.555 16.047 C 84.205 16.396,82.221 26.720,80.144 38.989 C 78.068 51.258,76.244 61.413,76.091 61.555 C 75.938 61.697,62.816 65.501,46.931 70.007 C 31.047 74.514,17.613 78.638,17.079 79.173 C 16.545 79.707,21.495 99.314,28.080 122.744 C 39.034 161.721,39.822 165.382,37.354 165.804 C 34.789 166.243,34.657 168.446,34.657 210.931 L 34.657 255.596 39.480 255.596 L 44.303 255.596 38.106 292.780 C 34.697 313.231,31.540 331.983,31.090 334.450 L 30.272 338.937 60.145 343.823 C 95.425 349.593,91.994 347.052,98.972 372.578 C 102.058 383.868,105.265 393.367,106.098 393.686 C 106.930 394.006,128.737 388.226,154.557 380.841 L 201.503 367.415 246.239 374.953 C 270.844 379.100,292.994 382.532,295.463 382.582 L 299.951 382.671 303.254 362.094 C 307.600 335.017,304.537 338.052,336.511 329.153 C 368.445 320.265,368.830 320.074,366.781 314.079 C 359.652 293.226,349.995 255.596,351.773 255.596 C 353.457 255.596,353.791 248.200,353.791 210.830 L 353.791 166.065 345.126 166.065 C 339.144 166.065,336.470 165.506,336.487 164.260 C 336.500 163.267,340.337 139.711,345.012 111.913 C 349.687 84.116,353.088 60.977,352.569 60.495 C 352.049 60.013,338.464 57.479,322.380 54.864 C 288.317 49.325,291.932 51.992,285.197 27.437 C 282.257 16.715,279.430 7.211,278.915 6.317 C 278.271 5.201,263.074 8.899,230.325 18.141 M272.956 32.130 C 274.630 37.888,276.347 43.802,276.771 45.273 C 277.431 47.554,276.940 47.819,273.429 47.082 C 271.166 46.607,257.376 44.296,242.784 41.946 C 213.365 37.209,212.497 36.931,220.432 34.791 C 223.490 33.966,234.440 30.738,244.765 27.616 C 270.707 19.775,269.300 19.549,272.956 32.130 M216.396 50.479 C 282.599 61.534,337.135 70.950,337.589 71.404 C 338.043 71.858,334.965 93.342,330.750 119.147 L 323.086 166.065 263.709 166.054 L 204.332 166.042 204.173 157.005 C 203.972 145.564,198.990 134.555,190.041 125.776 L 183.565 119.422 187.394 112.058 C 201.814 84.325,175.533 53.642,148.317 66.436 C 134.877 72.753,129.100 84.038,130.340 101.550 C 131.019 111.139,130.936 111.441,127.252 112.780 C 109.327 119.295,100.291 131.053,95.854 153.633 L 93.411 166.065 82.692 166.065 L 71.973 166.065 72.793 162.094 C 73.244 159.910,78.210 130.181,83.828 96.029 C 93.672 36.195,94.732 30.293,95.623 30.352 C 95.846 30.367,150.194 39.424,216.396 50.479 M73.646 77.343 C 73.646 77.787,70.397 97.568,66.426 121.300 C 62.455 145.031,59.206 164.812,59.206 165.257 C 59.206 170.676,53.518 164.644,51.457 157.040 C 50.111 152.076,48.058 144.765,46.895 140.794 C 36.599 105.664,31.989 88.829,32.521 88.297 C 34.235 86.584,73.646 76.085,73.646 77.343 M172.677 80.974 C 180.853 88.655,180.531 100.411,171.813 112.445 C 159.623 129.273,145.455 122.906,143.346 99.651 C 141.659 81.046,160.192 69.244,172.677 80.974 M237.680 95.512 C 237.156 98.788,236.937 101.678,237.192 101.934 C 237.955 102.696,309.174 114.414,309.700 113.864 C 309.966 113.585,310.410 110.758,310.688 107.581 L 311.191 101.805 280.144 96.536 C 263.069 93.638,246.743 90.882,243.865 90.411 C 238.666 89.560,238.626 89.593,237.680 95.512 M139.565 126.392 C 142.494 134.026,158.684 137.719,168.123 132.907 C 179.489 127.113,195.759 148.712,191.197 163.538 C 190.422 166.056,115.508 167.631,109.327 165.259 C 106.541 164.190,109.741 146.371,113.937 139.580 C 120.880 128.347,137.110 119.995,139.565 126.392 M230.479 139.468 C 229.244 142.688,229.388 150.176,230.686 150.206 C 231.282 150.219,247.349 152.780,266.392 155.895 C 285.435 159.011,301.248 161.328,301.532 161.044 C 304.682 157.894,303.234 148.968,299.448 148.194 C 295.580 147.404,232.797 137.184,231.808 137.184 C 231.559 137.184,230.961 138.212,230.479 139.468 M132.610 184.657 C 136.354 187.031,134.329 222.800,130.203 227.187 C 123.421 234.397,110.378 232.849,106.518 224.376 C 103.952 218.745,108.027 216.839,112.061 221.784 C 120.714 232.390,127.025 223.778,127.055 201.324 C 127.078 183.420,127.703 181.547,132.610 184.657 M170.562 186.547 C 173.648 188.282,176.173 190.577,176.173 191.647 C 176.173 194.746,172.264 195.406,168.699 192.909 C 162.733 188.730,150.181 191.008,150.181 196.269 C 150.181 198.539,155.456 202.028,163.341 204.974 C 172.668 208.459,175.771 211.345,177.047 217.726 C 179.596 230.472,156.483 236.852,144.180 226.798 C 138.811 222.411,142.631 219.558,149.493 222.830 C 159.878 227.783,169.758 225.189,168.703 217.788 C 168.331 215.183,166.080 213.624,158.123 210.464 C 146.966 206.033,142.944 202.345,142.992 196.591 C 143.087 185.399,158.517 179.778,170.562 186.547 M216.303 186.144 C 232.833 194.631,231.434 223.136,214.126 230.511 C 197.693 237.513,182.421 225.147,183.651 205.834 C 184.824 187.412,200.436 177.998,216.303 186.144 M255.596 202.245 L 267.870 220.217 268.592 202.166 C 269.183 187.405,269.709 184.116,271.480 184.116 C 275.601 184.116,274.599 230.189,270.465 230.777 C 267.830 231.152,265.351 228.326,256.025 214.312 L 244.765 197.394 244.043 213.860 C 243.354 229.583,243.175 230.346,240.072 230.786 L 236.823 231.248 236.823 208.163 C 236.823 185.185,237.292 182.939,241.877 183.954 C 242.671 184.129,248.845 192.360,255.596 202.245 M202.888 190.341 C 186.268 193.569,188.390 225.271,205.225 225.271 C 214.874 225.271,218.773 220.354,218.773 208.184 C 218.773 194.586,213.209 188.337,202.888 190.341 M77.978 259.716 L 77.978 263.836 176.534 280.015 C 230.740 288.914,276.022 296.320,277.161 296.473 C 279.232 296.751,282.490 286.341,280.847 284.697 C 280.414 284.264,242.227 277.608,195.986 269.905 L 111.913 255.899 209.747 255.797 C 263.556 255.741,307.594 256.160,307.610 256.729 C 307.708 260.266,289.614 366.295,288.743 367.284 C 287.802 368.353,47.993 329.738,46.260 328.239 C 45.629 327.693,55.659 263.590,57.230 258.123 C 57.832 256.029,59.672 255.596,67.967 255.596 L 77.978 255.596 77.978 259.716 M338.797 263.899 C 340.125 268.466,343.635 280.860,346.597 291.441 L 351.981 310.680 348.851 311.870 C 340.863 314.907,311.834 322.424,311.065 321.654 C 310.589 321.179,312.638 306.121,315.617 288.193 L 321.033 255.596 328.707 255.596 L 336.381 255.596 338.797 263.899 M71.639 297.527 C 70.484 304.750,70.020 304.122,77.424 305.345 C 82.812 306.234,83.452 306.013,84.264 302.982 C 85.764 297.381,85.311 293.141,83.213 293.141 C 82.121 293.141,79.290 292.753,76.922 292.280 C 72.789 291.453,72.577 291.664,71.639 297.527 M98.907 301.862 C 97.716 308.914,97.518 308.652,104.919 309.835 C 110.798 310.775,115.786 302.678,111.653 298.904 C 106.720 294.400,99.901 295.983,98.907 301.862 M126.466 302.754 C 123.444 310.632,126.412 314.725,135.190 314.782 C 138.324 314.802,141.392 305.281,138.951 303.111 C 136.414 300.855,127.295 300.594,126.466 302.754 M138.989 356.974 C 154.675 359.542,167.509 362.067,167.509 362.583 C 167.509 363.100,156.625 366.558,143.321 370.266 C 130.018 373.975,118.033 377.340,116.689 377.745 C 114.271 378.474,113.926 377.625,107.391 354.874 C 106.443 351.576,105.731 351.529,138.989 356.974" />
</svg>